<?xml version="1.0" standalone="no"?>
<!DOCTYPE svg PUBLIC "-//W3C//DTD SVG 20010904//EN"
 "http://www.w3.org/TR/2001/REC-SVG-20010904/DTD/svg10.dtd">
<svg version="1.0" xmlns="http://www.w3.org/2000/svg"
 width="286.000000pt" height="161.000000pt" viewBox="0 0 286.000000 161.000000"
 preserveAspectRatio="xMidYMid meet">
<metadata>
Created by potrace 1.10, written by Peter Selinger 2001-2011
</metadata>
<g transform="translate(0.000000,161.000000) scale(0.050000,-0.050000)"
fill="#986dcd" stroke="none">
<path d="M1589 2960 c10 -76 194 -2102 217 -2385 5 -53 12 -100 18 -105 8 -9
151 -50 799 -231 l234 -65 296 83 c164 46 397 111 520 145 l223 62 12 143 c29
336 213 2366 217 2400 5 36 -42 37 -1271 40 l-1276 3 11 -90z m1168 -107 c61
-72 -20 -202 -132 -213 -84 -8 -119 -24 -184 -84 l-81 -75 -1 -505 c-2 -488
-17 -652 -51 -537 -13 44 -16 45 -28 11 -11 -32 -31 -37 -124 -32 -66 3 -141
-8 -185 -26 -53 -23 -72 -24 -65 -7 4 14 -1 48 -12 75 -11 28 -28 149 -37 270
-9 121 -26 315 -37 430 -47 491 -48 638 -8 680 49 49 906 61 945 13z m1127
-136 c-3 -59 -14 -170 -24 -247 -10 -77 -24 -243 -31 -369 -6 -126 -15 -234
-19 -240 -3 -7 -12 -92 -19 -190 -7 -99 -18 -184 -24 -190 -6 -6 -7 57 -2 139
10 165 -19 247 -93 270 -42 12 -42 12 -2 31 27 13 -13 16 -123 8 -105 -7 -168
-4 -176 10 -8 13 7 21 38 21 28 0 51 9 51 20 0 11 -22 20 -50 20 -75 0 -61 40
15 42 60 3 134 7 252 15 40 2 44 8 23 33 -20 24 -19 30 6 30 117 0 164 336 63
445 l-51 55 -355 0 -356 0 -58 -61 -59 -62 -6 -473 c-8 -527 1 -629 57 -685
49 -49 49 -90 0 -152 -128 -164 -27 -534 137 -500 244 50 522 138 522 166 0
15 8 27 18 27 38 0 90 115 104 230 9 75 11 30 5 -122 -15 -349 -21 -370 -118
-400 -121 -37 -726 -208 -738 -208 -6 0 -11 551 -11 1225 l0 1225 515 -3 515
-4 -6 -106z m-1124 -1067 c0 -467 -6 -850 -13 -850 -7 0 -121 31 -255 70 -133
38 -293 83 -355 100 l-113 32 -9 144 c-11 181 -32 171 220 99 118 -33 227 -64
241 -68 22 -6 26 116 24 658 l-2 665 131 0 131 0 0 -850z m1006 715 c-5 -74
-11 -143 -13 -152 -3 -10 -128 -16 -279 -14 l-274 3 0 -231 c0 -127 7 -231 15
-230 8 0 123 17 255 37 286 44 255 64 231 -150 -11 -98 -26 -283 -33 -411
l-14 -232 -348 -95 c-192 -52 -351 -91 -354 -87 -3 4 -1 75 4 157 l8 150 243
60 243 60 6 125 c7 146 31 139 -272 78 -125 -25 -228 -40 -230 -34 -2 6 -1
256 2 556 l5 545 407 0 407 0 -9 -135z m-3 -1019 c-5 -136 -23 -133 -23 4 0
64 6 111 13 103 8 -7 12 -55 10 -107z m-1578 -539 c41 -7 75 -18 75 -25 0 -7
23 -15 52 -18 28 -2 62 -10 75 -19 27 -17 37 -19 105 -22 34 -2 49 -12 42 -29
-7 -18 9 -23 56 -18 118 14 150 -20 150 -159 l0 -122 -55 11 c-30 5 -104 24
-165 43 -60 18 -171 43 -245 56 -134 24 -167 44 -100 61 19 5 -8 5 -62 -1 -76
-9 -95 -5 -90 17 4 15 -2 30 -12 32 -41 7 -70 180 -36 214 8 8 42 10 75 3 33
-7 94 -17 135 -24z"/>
<path d="M1827 2640 c0 -93 3 -132 8 -85 4 47 4 123 0 170 -5 47 -8 9 -8 -85z"/>
</g>
</svg>
