<?xml version="1.0" standalone="no"?>
<!DOCTYPE svg PUBLIC "-//W3C//DTD SVG 20010904//EN"
 "http://www.w3.org/TR/2001/REC-SVG-20010904/DTD/svg10.dtd">
<svg version="1.0" xmlns="http://www.w3.org/2000/svg"
 width="900.000000pt" height="468.000000pt" viewBox="0 0 900.000000 468.000000"
 preserveAspectRatio="xMidYMid meet">
<metadata>
Created by potrace 1.10, written by Peter Selinger 2001-2011
</metadata>
<g transform="translate(0.000000,468.000000) scale(0.100000,-0.100000)"
fill="#986dff" stroke="none">
<path d="M2815 3686 c-16 -7 -47 -31 -67 -54 -33 -36 -37 -49 -44 -112 -5 -55
-11 -73 -26 -81 -15 -8 -24 -7 -36 4 -32 29 -113 49 -201 49 -94 0 -132 -11
-207 -62 -25 -16 -48 -30 -53 -30 -4 0 -30 20 -59 44 -60 52 -85 57 -238 57
-121 0 -202 -9 -210 -22 -7 -12 -61 -11 -69 1 -3 5 -1 17 5 27 16 24 -3 75
-24 67 -9 -3 -18 -16 -22 -27 -4 -12 -19 -38 -34 -57 -15 -19 -69 -116 -119
-214 l-91 -179 1 -101 c0 -56 4 -125 8 -154 6 -41 4 -57 -6 -68 -19 -19 -146
-19 -162 -1 -8 10 -8 55 -1 163 l9 149 -86 175 c-47 96 -98 193 -113 215 -15
22 -35 53 -44 68 -9 15 -21 25 -26 22 -15 -9 -12 -93 4 -123 66 -130 149 -308
164 -357 13 -39 20 -91 20 -143 0 -121 9 -160 40 -180 15 -9 37 -27 49 -39 17
-18 33 -23 73 -23 44 0 54 4 89 38 56 54 62 71 68 200 5 114 25 212 44 212 15
0 30 -48 45 -145 19 -131 39 -178 100 -238 63 -63 207 -94 251 -54 24 21 67
22 123 2 63 -22 80 -19 139 25 53 40 84 49 97 29 13 -22 126 -67 183 -74 96
-11 231 24 279 71 7 8 15 14 18 14 9 0 51 -26 82 -52 27 -23 42 -28 86 -28
105 0 166 76 166 207 0 69 11 100 24 67 3 -9 6 -38 6 -65 0 -86 62 -191 120
-204 78 -17 -10 -40 -143 -37 -93 2 -114 -4 -160 -46 -50 -48 -60 -108 -53
-339 5 -186 8 -209 28 -250 22 -43 93 -113 115 -113 6 0 24 -7 39 -15 16 -8
43 -15 59 -15 53 0 105 -12 105 -24 0 -7 -22 -20 -50 -30 -69 -25 -64 -41 13
-42 298 -5 2692 -3 2759 2 l88 7 -27 25 c-33 30 -74 43 -135 43 -27 0 -48 2
-48 4 0 3 18 21 39 40 79 72 87 136 26 204 -41 45 -50 74 -30 91 8 7 15 17 15
22 0 6 9 23 20 38 11 16 28 51 37 79 12 38 19 48 28 41 9 -8 14 -64 16 -193 4
-203 7 -212 75 -263 60 -46 113 -34 174 40 l25 30 0 272 0 271 -38 46 c-50 61
-115 82 -186 61 -26 -7 -60 -27 -76 -44 -16 -16 -32 -30 -36 -30 -5 0 -35 16
-68 35 -41 24 -78 38 -113 41 -113 11 -124 24 -58 62 46 26 84 79 100 140 12
48 27 54 36 15 20 -90 26 -103 65 -136 43 -37 104 -56 122 -38 6 6 19 11 29
11 10 0 35 16 57 35 21 19 45 35 54 35 8 0 41 -16 72 -35 71 -42 105 -50 215
-49 100 0 153 22 237 98 28 25 57 46 65 46 8 0 34 -20 58 -45 70 -71 125 -100
190 -98 54 1 87 10 123 35 14 11 24 9 57 -9 27 -16 55 -23 91 -23 49 0 55 3
95 46 50 55 52 62 59 229 7 144 11 175 24 175 9 0 16 -27 45 -186 12 -66 23
-94 58 -144 25 -37 56 -69 75 -78 18 -9 33 -19 33 -23 0 -15 84 -31 127 -25
24 3 61 15 83 26 49 25 51 25 81 -1 37 -32 109 -22 154 21 18 18 39 45 45 59
7 19 10 119 8 312 l-3 284 -30 37 c-16 20 -45 43 -65 52 -80 33 -334 25 -410
-14 -49 -25 -54 -25 -108 1 -35 17 -53 20 -90 14 -57 -9 -100 -9 -173 0 -48 6
-62 4 -107 -20 l-52 -27 -76 66 c-75 66 -75 66 -135 66 -55 0 -64 -3 -105 -37
-25 -21 -54 -53 -64 -71 -11 -18 -27 -35 -35 -38 -8 -4 -50 11 -93 32 -73 37
-82 39 -172 39 -114 -1 -155 -13 -226 -71 -29 -24 -62 -44 -73 -44 -10 0 -37
15 -60 34 -83 70 -104 78 -187 75 -72 -3 -77 -2 -90 21 -7 14 -13 35 -14 47 0
30 -76 116 -116 130 -39 14 -92 4 -130 -26 -34 -27 -72 -27 -100 0 -32 30 -97
42 -137 25 -63 -26 -107 -86 -107 -146 0 -33 -19 -80 -32 -80 -5 0 -23 8 -41
18 -27 14 -59 17 -207 17 -160 -1 -179 -3 -224 -23 -27 -13 -53 -19 -56 -15
-4 4 -15 31 -24 60 -12 37 -31 64 -66 97 -43 40 -55 46 -93 46 -92 0 -183 -93
-263 -267 -9 -21 -21 -33 -34 -33 -13 0 -25 12 -35 33 -77 169 -172 267 -257
267 -41 0 -109 -41 -137 -84 l-26 -40 -3 -338 c-2 -210 1 -353 8 -376 5 -21
25 -56 44 -78 33 -39 34 -39 105 -39 l71 0 45 48 c25 26 45 55 45 66 0 22 66
39 83 22 14 -14 100 -14 114 0 21 21 74 0 89 -34 7 -18 30 -48 49 -67 34 -33
40 -35 105 -35 61 0 72 3 97 28 35 33 71 35 108 5 16 -12 49 -27 74 -33 56
-15 66 -35 16 -35 -35 0 -50 -7 -128 -58 -56 -37 -89 -99 -85 -159 2 -35 7
-49 19 -51 12 -2 18 7 23 35 9 49 51 110 90 131 44 24 179 23 226 -1 55 -28
75 -63 73 -128 -2 -63 -23 -123 -57 -159 -164 -173 -167 -177 -152 -189 11 -9
34 -9 101 0 74 9 89 9 102 -3 15 -16 23 -101 10 -114 -4 -4 -80 -6 -169 -5
-200 3 -228 14 -228 87 0 16 26 51 78 106 107 115 166 187 187 227 16 32 16
35 -3 60 -15 20 -28 26 -58 26 -39 0 -40 0 -74 -75 -5 -10 -25 -16 -64 -18
-37 -2 -56 -7 -56 -16 0 -15 37 -50 63 -59 23 -9 21 -23 -5 -42 -31 -21 -72
-78 -104 -144 -25 -49 -26 -56 -13 -95 7 -22 30 -60 51 -84 22 -23 37 -46 34
-51 -15 -23 -257 -31 -298 -10 -26 14 -22 27 22 75 59 65 55 114 -18 183 -35
32 -37 33 -96 26 -34 -3 -62 -11 -64 -16 -6 -15 -23 -10 -43 14 -25 30 -24 86
5 157 19 46 22 67 16 95 -12 54 -50 104 -96 128 -17 9 -34 23 -37 32 -9 23
-107 21 -114 -2 -7 -26 -98 -67 -131 -58 -110 26 -151 26 -273 -1 -23 -5 -28
-2 -37 25 -15 44 -81 121 -102 121 -10 0 -23 7 -30 15 -10 12 -8 16 15 25 14
5 30 10 35 10 15 0 61 53 76 87 11 25 14 86 14 257 0 205 -2 229 -21 280 -15
39 -34 66 -63 89 -66 54 -86 62 -176 67 l-85 5 -15 58 c-28 103 -119 166 -195
133z m121 -69 c2 -7 1 -67 -4 -133 -5 -65 -7 -125 -4 -131 7 -22 33 -15 102
26 36 22 78 43 93 46 40 10 109 -27 143 -78 l29 -42 0 -270 0 -270 -73 -3
c-60 -2 -73 0 -79 14 -3 9 -6 118 -7 242 l-1 225 -26 19 c-25 19 -26 19 -85
-6 -32 -13 -67 -27 -78 -30 -18 -6 -18 -18 -15 -234 l4 -227 -79 0 -78 0 0
425 c1 234 1 428 1 433 2 13 151 8 157 -6z m2399 3 c8 -13 8 -837 0 -850 -4
-6 -32 -10 -63 -9 -103 1 -93 -43 -94 431 0 229 3 422 7 427 8 14 142 14 150
1z m287 -85 c-2 -49 -7 -107 -12 -129 -14 -63 6 -82 57 -53 146 82 151 83 211
57 42 -18 53 -29 75 -73 24 -51 25 -59 30 -309 5 -221 3 -257 -10 -262 -28
-11 -132 -6 -139 6 -5 7 -7 110 -5 229 2 188 0 221 -14 242 -9 14 -23 28 -31
31 -14 5 -148 -44 -164 -60 -4 -5 -4 -106 1 -224 6 -165 6 -216 -4 -222 -13
-9 -118 -11 -139 -3 -11 4 -13 85 -11 433 1 235 2 428 2 430 1 2 36 2 79 0
l77 -3 -3 -90z m-1775 40 c12 -8 27 -32 34 -52 12 -37 48 -115 98 -213 15 -30
36 -81 47 -113 19 -61 44 -86 62 -64 5 6 17 37 27 67 10 30 28 75 40 100 70
138 87 174 105 223 15 39 27 57 43 61 32 8 130 7 144 -2 10 -6 10 -58 1 -252
-9 -187 -9 -278 0 -394 14 -177 15 -176 -83 -176 -83 0 -100 14 -91 71 4 24 9
69 12 99 2 30 9 106 15 168 9 82 9 116 1 124 -14 14 -41 3 -49 -19 -3 -10 -16
-41 -29 -69 -12 -28 -27 -69 -33 -90 -6 -22 -23 -63 -39 -93 -29 -58 -61 -78
-108 -67 -27 7 -54 59 -121 230 -39 101 -65 138 -85 118 -9 -9 -9 -46 1 -159
14 -169 18 -216 27 -259 5 -26 2 -32 -21 -42 -32 -15 -141 -16 -150 -1 -4 6
-7 188 -7 404 0 216 3 398 7 404 10 17 127 14 152 -4z m3043 -119 c0 -30 4
-57 9 -60 4 -3 22 -2 38 3 48 14 63 -2 63 -63 0 -67 -14 -81 -64 -67 -24 6
-38 6 -42 -1 -4 -6 -6 -87 -5 -181 2 -184 5 -191 53 -181 49 10 68 -10 68 -72
0 -71 -19 -82 -112 -65 -70 12 -102 31 -136 82 -22 32 -23 41 -21 215 1 100
-2 187 -5 193 -4 6 -16 11 -26 11 -24 0 -40 29 -40 72 0 37 15 58 41 58 21 0
32 29 23 64 -10 39 2 46 82 46 l74 0 0 -54z m578 -47 c2 -15 -6 -44 -17 -65
-12 -21 -21 -45 -21 -52 0 -16 -34 -29 -82 -30 -21 -1 -52 -9 -69 -18 l-32
-16 4 -231 4 -232 -65 -3 c-36 -1 -71 2 -79 7 -11 7 -14 67 -14 332 l0 324 46
3 c42 3 50 -1 82 -32 l35 -36 78 40 c89 47 125 49 130 9z m-5378 14 c1 -12 1
-637 1 -650 -1 -19 -39 -25 -76 -13 -26 8 -39 21 -50 46 -8 19 -21 37 -29 40
-9 3 -42 -14 -79 -40 -73 -52 -97 -56 -162 -25 -53 25 -86 66 -110 137 -14 45
-16 79 -13 200 5 151 14 189 56 238 45 52 68 59 226 65 83 3 170 6 194 7 23 1
42 -1 42 -5z m2953 -328 l0 -330 -36 -3 c-48 -4 -74 11 -92 54 -12 30 -18 34
-37 28 -13 -3 -39 -19 -58 -34 -73 -56 -106 -63 -169 -30 -48 24 -87 70 -101
118 -6 20 -14 89 -17 152 -7 146 8 252 43 297 48 63 63 67 239 74 88 3 175 5
194 5 l34 -1 0 -330z m2957 325 c1 -5 1 -149 1 -320 0 -170 0 -317 -1 -325 0
-11 -12 -15 -42 -15 -53 0 -67 9 -88 52 -9 19 -23 32 -32 32 -9 -1 -48 -22
-86 -48 l-70 -46 -54 20 c-58 21 -94 54 -124 110 -16 30 -19 58 -19 205 0 155
2 174 23 215 24 50 36 65 71 95 20 18 42 21 180 26 86 3 175 6 199 7 23 1 42
-2 42 -8z m-5436 -20 c77 -35 133 -130 105 -181 -10 -19 -17 -21 -63 -16 -31
4 -55 13 -61 23 -36 59 -45 64 -105 64 -48 0 -63 -4 -80 -22 -48 -52 -13 -91
96 -107 98 -14 184 -54 203 -95 7 -16 16 -56 18 -90 6 -84 -23 -140 -93 -176
-43 -22 -61 -25 -154 -25 -117 1 -143 10 -196 67 -36 37 -59 98 -49 128 5 17
15 20 61 20 56 0 67 -6 107 -64 16 -24 24 -26 84 -26 48 0 72 5 85 17 22 20
24 66 2 87 -16 17 -21 18 -129 37 -112 19 -165 57 -185 129 -39 143 61 249
233 250 57 0 90 -5 121 -20z m3917 -7 c67 -35 103 -85 124 -175 35 -153 5
-318 -72 -390 -85 -79 -296 -77 -379 3 -56 55 -74 119 -74 269 0 149 12 193
68 252 46 49 98 66 198 67 69 1 88 -3 135 -26z m-739 -375 c6 -17 -1 -38 -13
-38 -5 0 -9 11 -9 25 0 26 14 34 22 13z m-573 -288 c59 -40 129 -42 183 -5 20
14 40 25 45 25 14 0 142 -65 143 -72 0 -4 -17 -16 -38 -27 -21 -11 -44 -26
-51 -34 -6 -8 -25 -20 -41 -27 -28 -12 -34 -10 -93 30 l-62 43 -113 -7 c-116
-6 -152 -17 -186 -55 -11 -12 -23 -21 -28 -21 -6 0 -35 18 -66 39 -32 21 -67
42 -79 46 -33 9 -28 20 17 40 29 13 51 16 82 11 121 -20 131 -19 178 12 25 17
50 31 55 31 6 0 30 -13 54 -29z m-1867 -154 c6 -10 7 -38 3 -63 l-7 -45 -141
3 -142 4 0 -65 0 -65 97 4 c112 4 115 2 103 -75 l-7 -46 -96 3 -97 4 0 -63 c0
-44 5 -66 15 -73 9 -6 58 -8 128 -4 80 4 118 2 128 -6 17 -14 19 -105 3 -114
-6 -4 -71 -6 -146 -6 -113 2 -142 5 -174 22 -72 36 -73 42 -80 329 -3 140 -2
260 2 265 4 6 84 10 204 9 178 0 198 -2 207 -18z m2747 15 c25 -5 51 -17 58
-27 10 -14 13 -80 11 -309 l-3 -290 -56 -3 c-37 -2 -59 1 -66 10 -6 8 -7 100
-3 248 4 142 3 240 -3 248 -5 6 -20 12 -32 12 -41 0 -65 61 -39 98 17 24 55
28 133 13z m-792 -22 c24 -12 51 -31 58 -43 42 -64 65 -242 46 -355 -23 -138
-73 -190 -189 -198 -104 -7 -182 35 -206 113 -28 91 -17 364 18 431 35 69 180
97 273 52z m445 9 c23 -7 53 -28 74 -51 34 -37 36 -43 32 -97 -5 -72 -50 -143
-156 -248 -90 -89 -91 -107 -5 -95 32 4 81 8 108 8 l50 0 0 -65 0 -65 -165 4
c-181 4 -215 12 -226 58 -10 37 12 72 123 193 108 119 143 169 143 204 0 29
-34 56 -70 56 -36 0 -50 -12 -65 -56 -11 -33 -18 -39 -45 -42 -42 -4 -80 21
-80 54 0 59 50 127 106 144 43 12 131 12 176 -2z m-1788 -50 c17 -66 22 -73
51 -76 40 -5 55 -19 55 -53 0 -32 -10 -41 -60 -49 l-35 -5 -1 -118 c-1 -70 3
-120 9 -124 6 -3 24 -9 40 -12 34 -7 51 -46 41 -93 -6 -32 -32 -42 -81 -33
-107 20 -138 79 -130 252 5 106 4 113 -19 144 -29 40 -30 59 -4 92 11 14 20
34 20 44 0 10 5 24 12 31 16 16 98 16 102 0z m-298 -69 c101 -26 145 -162 47
-146 -18 3 -45 15 -60 26 -35 28 -108 29 -123 2 -5 -11 -10 -24 -10 -30 0 -22
33 -41 72 -41 55 0 137 -30 155 -58 9 -12 18 -50 20 -85 4 -54 2 -66 -17 -91
-69 -86 -260 -87 -328 -1 -25 32 -30 93 -8 101 25 9 86 -14 107 -40 17 -21 29
-26 65 -26 43 0 84 24 84 50 0 23 -45 48 -98 55 -72 9 -128 37 -152 78 -25 41
-25 73 0 121 41 81 133 113 246 85z m-318 -266 c3 -19 -1 -23 -22 -23 -25 0
-56 23 -56 41 0 6 17 9 38 7 30 -2 38 -7 40 -25z m936 -108 c12 -33 6 -82 -13
-99 -24 -22 -83 -31 -109 -17 -40 22 -48 114 -11 137 45 27 119 16 133 -21z
m-393 -172 c7 -13 9 -26 6 -29 -10 -10 -177 -8 -187 2 -11 12 15 43 59 71 l35
21 38 -21 c20 -12 43 -32 49 -44z m1161 16 c34 -25 35 -35 6 -45 -23 -8 -116
-6 -130 3 -5 2 4 20 20 39 30 39 52 39 104 3z m400 5 c21 -15 38 -32 38 -39 0
-15 -99 -28 -115 -15 -6 5 -21 7 -33 3 -12 -3 -22 -1 -22 3 0 11 71 73 84 74
6 0 27 -12 48 -26z m-2004 -7 c18 -14 15 -35 -9 -48 -16 -8 -32 -8 -65 1 -44
12 -44 13 -27 33 32 35 67 40 101 14z m692 -22 l24 -26 -49 5 c-28 3 -54 5
-59 5 -16 1 27 41 44 41 9 0 27 -11 40 -25z"/>
<path d="M1791 3268 c-52 -28 -64 -58 -65 -172 -1 -91 2 -108 20 -133 33 -44
63 -50 118 -23 77 39 77 39 74 196 l-3 139 -60 3 c-34 1 -70 -3 -84 -10z"/>
<path d="M4737 3262 c-39 -24 -56 -68 -61 -159 -3 -70 -1 -89 17 -125 32 -62
67 -70 138 -31 l54 29 5 135 c3 74 2 142 -2 151 -11 22 -114 22 -151 0z"/>
<path d="M7691 3268 c-59 -21 -84 -219 -39 -299 29 -52 61 -58 130 -23 29 15
55 29 58 32 7 5 9 262 3 285 -4 15 -14 17 -69 15 -36 -2 -73 -6 -83 -10z"/>
<path d="M6272 3249 l-42 -31 0 -118 0 -118 35 -31 c61 -53 149 -40 187 29 16
29 19 51 16 132 -4 107 -15 129 -75 154 -49 21 -75 17 -121 -17z m88 -144 c0
-16 -6 -25 -15 -25 -15 0 -21 31 -8 43 13 14 23 6 23 -18z"/>
<path d="M5115 2470 c-48 -19 -51 -33 -47 -227 2 -98 5 -116 22 -133 28 -28
102 -28 131 1 19 19 20 30 17 176 -3 149 -4 156 -27 174 -24 20 -62 24 -96 9z"/>
<path d="M999 3653 c-27 -4 -67 -38 -57 -49 3 -3 38 -8 77 -11 78 -7 91 -15
111 -77 7 -22 21 -53 30 -70 10 -17 28 -61 39 -98 36 -110 61 -108 95 7 10 33
29 80 41 105 12 25 26 59 29 77 4 17 13 36 19 41 7 5 48 12 91 16 44 3 81 8
84 11 7 7 -40 44 -66 51 -68 19 -140 -19 -206 -108 -30 -41 -61 -49 -70 -20
-11 33 -100 108 -142 120 -23 7 -43 11 -45 11 -2 -1 -16 -4 -30 -6z"/>
<path d="M1827 2543 c-24 -6 -11 -23 18 -23 13 0 36 -5 50 -12 19 -9 28 -9 37
0 8 8 8 15 3 21 -12 10 -84 20 -108 14z"/>
<path d="M7820 2542 c-19 -2 -51 -11 -70 -20 l-35 -17 27 -3 c15 -2 36 2 47 7
11 6 35 11 55 11 37 0 57 15 28 21 -9 2 -33 3 -52 1z"/>
<path d="M1124 2532 c4 -7 23 -12 43 -12 20 0 44 -7 54 -16 12 -11 23 -13 34
-7 27 16 -4 32 -75 40 -47 4 -61 3 -56 -5z"/>
<path d="M7084 2530 c-36 -14 -42 -34 -8 -25 110 29 125 26 146 -31 14 -41 21
-42 53 -9 27 26 36 57 11 36 -12 -10 -23 -7 -55 13 -42 27 -104 34 -147 16z"/>
<path d="M1752 2499 c-13 -20 -14 -20 -27 -2 -22 28 -18 9 6 -32 12 -19 29
-39 38 -44 14 -8 16 -2 17 45 1 57 -12 69 -34 33z"/>
<path d="M1063 2495 c-3 -9 -18 -22 -34 -31 -16 -8 -29 -18 -29 -22 0 -4 19
-12 43 -19 23 -6 53 -14 67 -18 23 -7 24 -6 7 7 -10 7 -21 32 -24 56 -6 43
-19 55 -30 27z"/>
<path d="M7917 2503 c-4 -3 -7 -24 -7 -46 0 -39 0 -39 31 -33 17 3 35 6 40 6
19 0 8 24 -23 52 -36 32 -33 30 -41 21z"/>
<path d="M1215 2420 c-18 -20 -17 -20 23 -20 45 0 54 13 23 30 -26 13 -25 13
-46 -10z"/>
<path d="M7722 2426 c-29 -15 -18 -26 25 -26 36 0 43 14 15 29 -11 6 -25 5
-40 -3z"/>
<path d="M1903 2419 c-7 -7 -33 -12 -58 -13 -45 -1 -55 -12 -33 -34 11 -11
276 -9 428 4 63 6 64 6 34 19 -18 7 -92 15 -175 18 -79 3 -153 8 -164 11 -11
4 -25 2 -32 -5z"/>
<path d="M7200 2415 c-11 -14 -22 -16 -55 -10 -22 4 -56 7 -75 6 -19 -1 -101
-4 -182 -7 -82 -3 -148 -9 -148 -14 0 -14 50 -19 258 -24 l193 -4 15 23 c20
30 14 55 -6 30z"/>
<path d="M1470 2411 c0 -6 6 -11 13 -11 7 0 28 -16 47 -35 28 -29 41 -35 70
-33 19 1 61 -2 93 -6 64 -9 71 -2 35 39 -13 15 -32 25 -48 25 -14 0 -31 5 -38
12 -9 9 -15 9 -24 0 -9 -9 -7 -12 10 -12 12 0 22 -4 22 -10 0 -19 -73 -11 -95
10 -25 23 -85 38 -85 21z"/>
<path d="M7453 2403 c-7 -2 -13 -10 -13 -18 0 -15 -48 -26 -79 -18 -29 8 -26
21 7 26 l27 4 -27 2 c-33 1 -112 -41 -116 -63 -3 -12 4 -16 27 -16 16 0 33 4
36 10 3 5 29 8 58 5 55 -4 82 8 124 52 l22 23 -27 -1 c-15 0 -33 -3 -39 -6z"/>
<path d="M950 2375 c0 -8 5 -15 10 -15 6 0 10 7 10 15 0 8 -4 15 -10 15 -5 0
-10 -7 -10 -15z"/>
<path d="M8020 2354 c0 -14 4 -23 10 -19 6 3 10 15 10 26 0 10 -4 19 -10 19
-5 0 -10 -12 -10 -26z"/>
<path d="M1081 2306 c-26 -14 -39 -26 -32 -30 15 -10 103 24 98 37 -6 18 -20
16 -66 -7z"/>
<path d="M7847 2323 c-21 -20 26 -43 86 -42 l42 0 -40 15 c-22 8 -44 19 -49
24 -12 12 -30 13 -39 3z"/>
<path d="M1780 2251 c-45 -6 -45 -6 25 -14 82 -8 309 -7 410 2 l70 6 -100 8
c-114 8 -338 7 -405 -2z"/>
<path d="M6757 2253 c-9 -2 -15 -9 -11 -14 3 -6 127 -9 304 -9 294 1 390 11
227 23 -91 8 -492 7 -520 0z"/>
<path d="M7410 2207 c0 -8 9 -22 20 -32 23 -21 25 -16 8 20 -12 27 -28 34 -28
12z"/>
<path d="M1205 2171 c-7 -12 31 -25 45 -16 6 4 8 11 5 16 -8 12 -42 12 -50 0z"/>
<path d="M7748 2173 c-33 -9 -18 -24 20 -21 20 2 37 8 37 13 0 11 -31 16 -57
8z"/>
<path d="M7465 2140 c3 -5 17 -10 31 -10 14 0 22 4 19 10 -3 6 -17 10 -31 10
-14 0 -22 -4 -19 -10z"/>
<path d="M1137 2113 c-11 -10 -8 -73 3 -73 6 0 10 18 10 40 0 41 -2 45 -13 33z"/>
<path d="M7410 2039 c0 -4 8 -10 18 -14 16 -6 16 -7 -2 -21 -15 -11 -17 -17
-8 -26 9 -9 21 -7 54 5 39 16 44 16 77 -1 29 -14 35 -22 33 -42 -7 -51 -62
-77 -110 -51 -10 5 -176 6 -392 2 -328 -5 -372 -8 -350 -20 19 -11 94 -14 355
-16 199 -2 346 -7 370 -14 45 -12 116 -5 156 15 26 13 26 16 17 56 -5 24 -16
50 -24 59 -8 9 -12 23 -8 32 3 10 -2 20 -16 27 -23 12 -170 20 -170 9z"/>
<path d="M7676 2042 c-12 -20 86 -58 119 -46 26 10 -2 24 -49 24 -24 0 -43 6
-51 17 -8 11 -14 12 -19 5z"/>
<path d="M1453 2027 c-4 -8 -15 -16 -24 -19 -9 -4 -22 -28 -28 -55 -7 -26 -17
-53 -23 -60 -18 -22 9 -40 75 -52 42 -7 74 -8 97 -1 20 5 187 11 372 12 251 2
340 6 349 15 7 7 10 15 8 18 -3 2 -145 5 -315 6 -170 1 -328 5 -351 9 -28 5
-48 3 -60 -5 -31 -21 -65 -24 -100 -10 -31 13 -34 18 -31 52 3 36 5 38 49 47
35 7 53 5 76 -6 29 -14 53 -14 53 1 0 5 -17 20 -38 35 -41 28 -96 35 -109 13z"/>
<path d="M1196 2000 c6 -6 21 -6 39 -1 30 9 30 9 -9 10 -26 1 -37 -2 -30 -9z"/>
<path d="M7995 1936 c-19 -15 -19 -15 10 -15 17 1 41 5 55 9 23 7 23 8 3 9
-12 1 -27 3 -35 6 -7 3 -22 -1 -33 -9z"/>
<path d="M915 1930 c-4 -6 11 -10 37 -10 25 0 53 -7 64 -15 22 -17 44 -19 44
-5 0 6 -9 10 -19 10 -10 0 -21 7 -25 15 -6 17 -91 21 -101 5z"/>
<path d="M860 1855 c0 -19 5 -35 10 -35 6 0 10 16 10 35 0 19 -4 35 -10 35 -5
0 -10 -16 -10 -35z"/>
<path d="M7960 1807 c0 -10 57 -37 79 -37 18 0 38 17 29 25 -6 7 -108 18 -108
12z"/>
<path d="M930 1775 c0 -12 7 -15 25 -13 14 2 26 8 26 13 0 6 -12 11 -26 13
-18 2 -25 -1 -25 -13z"/>
<path d="M5944 1733 c-21 -31 -51 -69 -66 -84 -18 -17 -28 -38 -28 -56 0 -38
-44 -101 -77 -109 -14 -4 -47 -2 -72 4 -31 8 -59 9 -86 2 -26 -6 -53 -6 -77 1
-24 6 -52 6 -81 -1 -30 -6 -55 -6 -74 1 -18 6 -45 7 -69 1 -21 -4 -57 -5 -79
-1 -22 4 -59 3 -83 -2 -24 -5 -48 -6 -54 -3 -6 4 -118 6 -249 6 -153 -1 -240
2 -244 9 -5 7 -11 7 -19 0 -7 -6 -81 -10 -171 -11 -88 0 -169 -1 -180 -1 -11
-1 -76 0 -145 1 -187 2 -233 2 -260 2 -71 -1 -144 -1 -225 0 -49 1 -106 -2
-127 -6 -22 -4 -51 -1 -76 7 -33 11 -42 12 -58 0 -30 -22 -97 -17 -121 9 -31
33 -52 91 -42 111 7 11 4 17 -10 22 -11 3 -27 18 -37 33 -27 42 -87 112 -96
112 -39 0 59 -228 130 -302 70 -73 -36 -68 1334 -68 865 0 1245 3 1273 11 48
13 113 78 148 146 14 26 36 71 50 98 27 51 33 90 19 113 -6 8 -20 -5 -48 -45z"/>
<path d="M1700 1770 c-201 -3 -354 -8 -340 -12 14 -4 35 -8 48 -8 13 0 22 -6
22 -15 0 -13 22 -15 135 -15 113 0 135 2 135 15 0 13 23 15 151 15 129 0 150
-2 146 -15 -4 -8 -2 -17 2 -20 31 -18 301 -13 301 6 0 5 -11 9 -24 9 -36 0
-42 18 -9 27 23 7 17 9 -37 14 -36 4 -87 6 -115 6 -27 -1 -214 -4 -415 -7z"/>
<path d="M6722 1773 c-30 -6 -18 -23 16 -23 15 0 38 -7 51 -17 19 -13 28 -14
42 -5 23 15 76 16 84 2 10 -17 65 -12 65 5 0 14 40 15 323 15 311 -1 363 2
351 21 -5 9 -883 10 -932 2z"/>
<path d="M3598 1679 c-3 -33 -5 -34 -50 -37 -41 -3 -51 1 -73 24 l-25 26 -10
-26 c-8 -23 -15 -26 -53 -26 -29 0 -53 7 -70 20 -30 24 -37 25 -37 6 0 -7 -10
-20 -22 -28 -23 -15 -23 -15 12 -23 19 -4 43 -14 52 -22 16 -14 18 -14 24 1 8
20 103 23 122 4 10 -10 17 -10 32 0 24 15 112 16 126 2 8 -8 19 -8 38 0 47 17
113 13 134 -10 l19 -21 6 21 c4 17 13 20 60 20 37 0 59 -5 67 -15 12 -14 15
-14 30 0 19 18 110 21 127 4 7 -7 17 -8 29 -1 26 13 276 13 292 -1 9 -7 16 -7
24 1 7 7 36 12 64 12 41 0 56 -4 66 -19 14 -19 14 -19 27 1 12 19 20 20 84 15
40 -3 91 -1 113 5 33 8 48 7 73 -6 28 -15 34 -15 61 -1 45 23 100 15 122 -19
5 -7 12 -5 20 7 21 28 84 34 117 10 26 -20 27 -20 50 -2 28 23 79 25 109 4 19
-14 24 -14 51 0 38 19 81 19 109 -1 21 -14 25 -14 47 0 29 19 81 20 114 2 20
-11 28 -11 53 3 24 14 27 20 22 46 -9 41 -9 41 -44 11 -22 -18 -43 -26 -70
-26 -35 0 -39 3 -45 30 l-7 31 -34 -31 c-45 -39 -107 -43 -125 -7 -17 32 -17
32 -44 3 -21 -23 -32 -27 -67 -24 -38 3 -43 6 -51 38 -8 31 -10 33 -19 15 -19
-36 -52 -55 -96 -55 -36 0 -44 4 -54 25 -14 30 -24 32 -31 5 -12 -46 -107 -49
-130 -3 l-14 25 -16 -26 c-15 -22 -25 -26 -68 -26 -31 0 -51 5 -53 13 -16 52
-17 53 -26 30 -12 -29 -40 -43 -87 -43 -44 0 -54 6 -70 40 -8 17 -12 20 -12 8
-2 -49 -105 -69 -135 -26 l-16 22 -20 -22 c-30 -32 -104 -31 -133 2 l-21 24
-11 -22 c-19 -38 -118 -34 -131 6 -6 22 -7 21 -26 -5 -16 -22 -27 -27 -65 -27
-37 0 -50 5 -73 30 l-29 31 -3 -28 c-3 -26 -7 -28 -50 -31 -40 -3 -52 1 -73
22 -31 31 -35 32 -35 7 0 -23 -19 -31 -70 -31 -32 0 -44 6 -69 36 l-30 37 -3
-34z"/>
<path d="M893 1688 c-23 -11 -31 -28 -14 -28 5 0 21 4 36 10 24 9 27 7 40 -23
12 -30 18 -33 45 -29 31 4 53 22 27 22 -7 0 -31 13 -53 30 -43 32 -49 34 -81
18z"/>
<path d="M8030 1691 c-20 -14 -11 -20 44 -27 44 -6 48 -5 44 12 -4 21 -62 31
-88 15z"/>
<path d="M7978 1658 c9 -9 15 -9 24 0 9 9 7 12 -12 12 -19 0 -21 -3 -12 -12z"/>
<path d="M8156 1638 c-24 -78 -6 -102 49 -68 18 11 46 20 64 20 33 0 42 14 15
24 -9 3 -30 6 -49 6 -18 0 -38 7 -45 15 -15 18 -29 19 -34 3z"/>
<path d="M819 1624 c-10 -12 -24 -15 -52 -11 -42 6 -67 0 -67 -14 0 -5 7 -9
16 -9 9 0 36 -10 60 -21 56 -28 74 -21 74 31 0 43 -9 50 -31 24z"/>
<path d="M1458 1613 c12 -2 32 -2 45 0 12 2 2 4 -23 4 -25 0 -35 -2 -22 -4z"/>
<path d="M1820 1609 c-80 -3 -173 -4 -207 -3 -36 2 -63 -1 -63 -6 0 -12 -117
-13 -124 -2 -7 12 -136 6 -149 -7 -6 -6 -8 -14 -4 -17 11 -11 1247 -15 1266
-4 13 7 11 11 -14 20 -75 29 -303 35 -705 19z"/>
<path d="M6525 1591 c-29 -15 -25 -16 120 -21 147 -6 239 -6 360 -1 l60 3 -65
13 c-36 7 -151 15 -255 18 -164 4 -195 2 -220 -12z"/>
<path d="M7687 1593 c-13 -12 -7 -21 18 -27 33 -9 50 1 34 20 -12 15 -41 19
-52 7z"/>
<path d="M7440 1580 c0 -5 9 -10 21 -10 11 0 17 5 14 10 -3 6 -13 10 -21 10
-8 0 -14 -4 -14 -10z"/>
<path d="M8340 1530 c0 -18 4 -29 10 -25 6 3 10 15 10 25 0 10 -4 22 -10 25
-6 4 -10 -7 -10 -25z"/>
<path d="M8047 1504 c-16 -17 -5 -25 31 -22 20 2 37 8 37 13 0 12 -57 19 -68
9z"/>
<path d="M7470 1485 c-33 -11 -107 -15 -273 -16 -188 -1 -226 -4 -215 -15 18
-18 492 -24 510 -6 36 36 98 -5 98 -64 0 -34 1 -36 28 -30 15 4 34 16 44 26 9
11 24 20 35 20 10 1 36 9 58 20 26 13 62 19 103 20 59 0 62 1 62 24 0 16 -7
26 -22 30 -63 17 -158 -4 -158 -35 0 -11 -12 -21 -32 -27 -72 -22 -79 -22 -88
3 -19 50 -82 71 -150 50z"/>
<path d="M8152 1489 c2 -7 10 -15 17 -17 8 -3 12 1 9 9 -2 7 -10 15 -17 17 -8
3 -12 -1 -9 -9z"/>
<path d="M1410 1468 c-25 -13 -44 -29 -42 -37 1 -7 -5 -19 -14 -25 -26 -19 -9
-56 25 -56 24 0 28 5 37 43 8 38 12 42 42 45 19 2 46 -1 60 -6 15 -5 125 -6
252 -2 181 5 231 3 254 -8 21 -10 31 -11 39 -3 9 9 6 13 -10 17 -12 3 -23 13
-25 21 -3 12 -45 15 -268 17 -146 2 -274 6 -285 10 -12 4 -37 -2 -65 -16z"/>
<path d="M784 1465 c-10 -8 -36 -15 -56 -15 -21 0 -38 -4 -38 -10 0 -17 85
-11 129 8 22 10 38 22 34 25 -11 12 -48 8 -69 -8z"/>
<path d="M915 1470 c3 -5 13 -10 21 -10 8 0 14 5 14 10 0 6 -9 10 -21 10 -11
0 -17 -4 -14 -10z"/>
<path d="M1080 1474 c-11 -3 -15 -18 -14 -57 1 -70 2 -77 15 -77 6 0 8 11 5
28 -10 44 14 67 69 66 25 -1 51 -6 57 -12 24 -24 134 -4 125 22 -2 6 -21 15
-43 20 -45 10 -191 17 -214 10z"/>
<path d="M7920 1395 c0 -19 5 -35 10 -35 6 0 10 16 10 35 0 19 -4 35 -10 35
-5 0 -10 -16 -10 -35z"/>
<path d="M1547 1344 c-3 -3 -30 -10 -59 -14 l-53 -8 45 -1 c58 -1 120 9 120
20 0 10 -43 12 -53 3z"/>
<path d="M1947 1344 c-11 -11 3 -24 27 -24 13 0 36 -12 52 -26 20 -19 29 -23
33 -13 2 7 -1 15 -8 17 -6 2 -17 9 -24 16 -27 28 -67 42 -80 30z"/>
<path d="M6979 1323 c-9 -10 -25 -23 -35 -30 -16 -10 -16 -12 -3 -12 9 -1 22
6 29 14 7 8 18 15 25 15 7 0 18 7 25 15 19 23 -21 20 -41 -2z"/>
<path d="M7755 1330 c-9 -14 -9 -14 41 -28 30 -9 49 -9 73 -1 43 15 39 29 -8
29 -21 0 -52 3 -69 6 -18 4 -32 1 -37 -6z"/>
<path d="M1190 1315 c-7 -8 -26 -15 -42 -15 -17 0 -27 -4 -23 -10 13 -21 115
2 115 25 0 20 -34 19 -50 0z"/>
<path d="M2107 1253 c-23 -22 18 -38 59 -23 23 9 25 13 14 20 -17 11 -64 13
-73 3z"/>
<path d="M2230 1240 c0 -5 11 -10 25 -10 14 0 25 5 25 10 0 6 -11 10 -25 10
-14 0 -25 -4 -25 -10z"/>
</g>
</svg>
