<?xml version="1.0" standalone="no"?>
<!DOCTYPE svg PUBLIC "-//W3C//DTD SVG 20010904//EN"
 "http://www.w3.org/TR/2001/REC-SVG-20010904/DTD/svg10.dtd">
<svg version="1.0" xmlns="http://www.w3.org/2000/svg"
 width="900.000000pt" height="396.000000pt" viewBox="0 0 900.000000 396.000000"
 preserveAspectRatio="xMidYMid meet">
<metadata>
Created by potrace 1.10, written by Peter Selinger 2001-2011
</metadata>
<g transform="translate(0.000000,396.000000) scale(0.100000,-0.100000)"
fill="#986dff" stroke="none">
<path d="M2608 3646 c-46 -53 -58 -84 -58 -141 0 -24 -4 -55 -9 -68 l-10 -25
-63 31 c-35 17 -71 34 -80 39 -10 4 -51 8 -93 8 -83 0 -130 -15 -212 -67 -29
-18 -56 -33 -61 -33 -4 0 -24 16 -43 36 -61 64 -77 68 -244 69 -132 0 -157 -3
-205 -22 -84 -34 -82 -34 -86 22 -4 64 -12 95 -24 95 -6 0 -10 -9 -10 -19 0
-10 -16 -43 -36 -72 -36 -53 -83 -139 -172 -313 l-45 -88 4 -172 4 -171 -78
-3 c-98 -4 -111 4 -103 67 4 25 8 97 11 159 l5 114 -91 176 c-51 98 -105 195
-120 217 -16 22 -35 52 -41 68 -26 58 -49 3 -28 -68 7 -22 52 -121 100 -221
l87 -180 5 -125 c6 -174 33 -230 125 -263 55 -19 100 -6 149 45 42 43 52 84
53 217 1 50 9 94 26 144 14 39 27 74 30 76 15 15 26 -25 30 -109 6 -150 26
-211 91 -288 55 -64 117 -96 186 -95 31 0 78 9 103 19 42 15 52 16 89 4 70
-23 116 -18 166 19 52 38 74 40 121 8 53 -36 177 -58 265 -47 64 8 101 22 176
69 30 18 28 19 92 -32 96 -76 212 -27 260 110 7 22 17 39 22 39 4 0 14 -20 21
-45 15 -52 73 -115 121 -131 46 -15 96 -4 136 32 61 53 66 74 66 299 0 255 -9
297 -84 378 -49 53 -101 75 -182 77 -39 1 -75 5 -81 8 -6 4 -16 30 -23 58 -7
28 -24 64 -39 79 -14 16 -32 36 -39 44 -9 12 -31 16 -80 16 -67 -1 -67 -1
-104 -44z m195 -46 c0 -14 -7 -78 -13 -143 -7 -65 -9 -121 -6 -125 10 -9 70
15 137 55 73 43 110 41 174 -11 58 -48 63 -77 67 -376 l3 -245 -76 -3 c-53 -2
-79 1 -87 10 -7 9 -8 76 -2 218 8 184 7 209 -8 240 -15 32 -21 35 -57 34 -49
-1 -110 -24 -134 -50 -17 -18 -17 -33 -9 -204 4 -102 9 -198 11 -215 l2 -30
-87 -3 c-84 -3 -88 -2 -93 20 -3 13 -2 55 2 93 5 39 6 223 3 410 -3 187 -4
344 -2 348 2 4 43 6 90 5 86 -3 87 -3 85 -28z m-858 -490 c1 -168 4 -316 6
-330 3 -21 -1 -25 -26 -30 -55 -11 -88 3 -110 43 -11 20 -26 39 -33 42 -7 3
-43 -15 -80 -40 -82 -55 -115 -58 -183 -14 -59 38 -86 81 -99 162 -20 125 -7
309 27 372 19 37 64 74 107 89 19 6 107 11 211 11 l178 0 2 -305z m479 277
c50 -28 96 -91 103 -143 7 -54 -11 -69 -73 -59 -37 5 -49 12 -65 39 -35 61
-129 77 -174 31 -31 -30 -31 -40 -2 -69 18 -18 43 -26 108 -35 149 -22 201
-67 207 -181 4 -58 1 -75 -19 -110 -41 -73 -146 -112 -265 -99 -111 12 -167
47 -199 123 -30 72 -3 104 75 91 32 -5 45 -15 68 -48 27 -41 29 -42 91 -45 79
-4 111 14 111 61 0 17 -4 37 -8 44 -13 21 -76 42 -145 49 -73 7 -129 34 -161
77 -31 43 -30 159 2 204 26 36 96 81 145 94 52 13 157 0 201 -24z"/>
<path d="M1635 3250 c-53 -20 -80 -103 -69 -212 12 -118 55 -147 155 -102 32
15 59 29 60 33 0 3 2 66 3 139 2 93 -1 135 -9 142 -14 11 -110 11 -140 0z"/>
<path d="M5085 3683 c-47 -38 -83 -94 -94 -151 -6 -34 -16 -64 -21 -67 -5 -3
-28 3 -52 12 -35 15 -72 18 -198 18 -147 -1 -158 -2 -212 -28 -31 -15 -61 -27
-67 -27 -16 0 -41 42 -41 70 0 55 -101 150 -159 150 -40 0 -110 -33 -143 -68
-20 -20 -58 -79 -84 -129 -27 -51 -55 -95 -64 -98 -19 -8 -59 40 -101 123 -61
117 -153 180 -241 166 -48 -7 -113 -72 -123 -123 -9 -43 -8 -636 1 -701 8 -55
40 -106 77 -121 32 -14 57 -35 57 -50 0 -6 -20 -19 -45 -30 -52 -23 -111 -94
-121 -144 -10 -54 12 -100 64 -138 26 -18 55 -36 65 -40 22 -8 22 -22 -1 -39
-41 -30 -121 -140 -137 -189 -16 -48 -16 -54 -1 -85 9 -19 35 -55 58 -79 32
-36 39 -48 29 -58 -8 -8 -88 -14 -274 -17 -261 -6 -324 -14 -315 -42 3 -7 22
-16 44 -20 21 -5 57 -12 80 -18 28 -6 53 -5 78 2 26 8 49 8 84 0 34 -8 58 -8
90 1 31 8 53 8 86 -1 31 -8 54 -8 80 -1 26 7 53 7 85 0 33 -7 60 -7 85 0 26 7
53 7 86 0 29 -6 60 -7 78 -1 17 4 57 5 89 1 31 -5 72 -4 90 1 21 6 54 5 87 -1
36 -7 66 -7 90 0 20 6 46 7 58 3 11 -3 50 -5 87 -4 36 1 77 2 91 2 14 -1 95
-1 180 -1 85 1 166 0 180 -1 14 0 45 0 70 1 25 1 63 1 85 1 22 -1 60 -1 85 0
101 2 131 0 143 -11 10 -8 17 -7 25 1 6 6 33 11 59 10 26 0 73 0 103 0 30 0
73 0 95 -1 22 0 58 0 80 1 74 1 120 0 150 -2 45 -4 147 18 163 34 12 12 11 16
-9 27 -18 11 -101 15 -336 19 -171 3 -315 9 -320 14 -4 5 0 13 11 20 82 50
123 87 153 136 28 47 33 64 33 120 0 36 -5 83 -10 105 -6 26 -6 69 2 126 11
85 11 88 -15 141 -32 66 -80 113 -132 131 -22 8 -40 19 -40 25 0 13 111 82
132 82 8 0 31 -11 51 -25 26 -18 50 -25 84 -25 39 0 54 6 91 38 49 40 67 70
67 106 0 13 7 29 16 37 19 16 29 3 38 -51 8 -48 78 -116 131 -126 50 -9 106
11 146 52 18 19 38 34 44 34 6 0 42 -19 80 -41 52 -32 84 -44 139 -51 131 -19
281 33 338 115 12 18 23 34 24 36 7 9 54 -11 54 -22 0 -15 62 -75 104 -102 48
-29 155 -32 215 -6 l49 21 44 -20 c70 -32 137 -21 185 31 37 41 45 79 50 234
2 82 8 154 13 159 6 6 17 0 30 -15 16 -19 19 -33 15 -63 -3 -21 -2 -43 3 -50
5 -6 12 -32 15 -58 8 -60 58 -154 104 -195 56 -50 130 -74 195 -63 29 5 68 14
86 20 26 10 44 9 96 -5 61 -17 64 -16 102 3 89 45 94 67 94 382 0 266 -6 312
-41 331 -10 5 -19 17 -19 25 0 62 -343 71 -464 13 l-46 -23 -45 22 c-53 26
-93 28 -160 8 -42 -13 -51 -13 -69 0 -34 23 -112 18 -167 -13 l-50 -27 -62 67
c-110 117 -192 127 -274 33 -17 -19 -36 -50 -43 -70 -19 -59 -35 -61 -135 -10
-86 42 -92 44 -180 44 -80 0 -96 -4 -149 -30 -33 -17 -78 -46 -102 -65 -23
-19 -47 -35 -54 -35 -6 0 -30 18 -53 41 -67 65 -110 83 -197 84 l-75 0 -23 65
c-14 40 -37 79 -60 103 -33 34 -40 37 -94 37 -45 0 -69 -6 -107 -27 l-49 -28
-27 25 c-21 20 -38 25 -93 28 -37 1 -71 -1 -77 -5z m147 -487 c0 -349 -3 -430
-14 -437 -7 -5 -38 -9 -69 -9 -83 0 -91 12 -79 125 13 120 13 451 0 609 -6 70
-8 131 -4 137 3 5 40 9 86 7 l79 -3 1 -429z m288 395 c0 -21 -5 -85 -11 -141
-7 -69 -7 -106 0 -113 12 -12 53 4 134 51 67 41 107 40 164 -4 65 -49 71 -77
74 -369 l4 -260 -85 0 -85 0 1 50 c0 28 2 132 5 231 4 168 3 183 -15 203 -24
27 -65 27 -116 1 -22 -11 -46 -20 -54 -20 -9 0 -19 -8 -24 -17 -4 -10 -5 -112
-1 -228 5 -115 4 -214 0 -218 -4 -4 -41 -7 -81 -5 l-73 3 1 435 c0 239 1 436
1 438 1 1 37 2 81 2 l80 0 0 -39z m-1783 -51 c12 -25 39 -81 58 -125 20 -44
49 -107 66 -139 16 -32 29 -66 29 -75 0 -9 9 -31 20 -49 17 -28 23 -31 40 -22
11 6 24 29 30 53 7 23 27 76 47 117 19 41 48 102 63 135 16 33 31 70 35 82 3
12 15 33 26 47 19 24 27 26 94 26 49 0 74 -4 77 -12 2 -7 0 -129 -5 -271 -7
-159 -7 -307 -1 -388 5 -72 6 -139 2 -150 -6 -16 -17 -19 -82 -19 -91 0 -97 7
-86 100 5 36 10 134 12 219 4 222 -9 216 -108 -44 -42 -113 -76 -155 -123
-155 -25 0 -35 7 -55 38 -13 21 -31 58 -39 83 -9 24 -25 63 -37 87 -11 23 -23
55 -26 71 -3 15 -16 41 -29 57 -45 55 -49 28 -31 -209 9 -118 13 -223 10 -232
-5 -13 -21 -15 -91 -13 l-85 3 1 410 c0 226 0 414 1 418 0 4 37 7 83 5 l82 -3
22 -45z m3068 -80 l0 -65 50 -5 c45 -5 50 -8 58 -35 5 -18 4 -41 -2 -57 -10
-25 -15 -28 -61 -28 l-50 0 0 -174 c0 -129 3 -177 13 -183 6 -4 32 -10 57 -13
l45 -5 0 -70 0 -70 -48 -3 c-96 -6 -195 51 -216 125 -5 16 -6 109 -3 206 l5
177 -35 15 c-56 23 -62 99 -9 112 36 8 42 21 35 70 -10 70 -5 74 83 71 l78 -3
0 -65z m294 -41 c19 -7 33 -20 37 -35 9 -34 37 -38 84 -12 23 13 56 31 73 40
38 22 70 23 86 4 9 -10 8 -25 -5 -62 -32 -96 -37 -101 -104 -108 -41 -5 -68
-14 -85 -29 l-25 -22 9 -210 c4 -115 6 -216 4 -222 -6 -16 -149 -18 -158 -3
-4 7 -9 580 -6 647 1 6 11 14 24 16 12 2 25 5 28 6 3 0 20 -4 38 -10z m-2169
-15 c8 -8 8 -29 0 -77 -12 -67 -7 -450 6 -529 5 -33 3 -39 -17 -47 -42 -15
-90 -2 -108 31 -36 66 -31 66 -116 15 -43 -26 -89 -47 -104 -47 -40 1 -113 43
-138 79 -31 45 -44 119 -45 252 0 148 14 219 55 266 54 62 81 68 280 68 115 0
180 -4 187 -11z m1443 -11 c64 -32 90 -57 115 -112 21 -46 27 -75 30 -167 7
-191 -25 -272 -130 -325 -49 -25 -69 -29 -136 -29 -119 0 -202 42 -243 121
-42 83 -44 331 -4 409 16 30 70 82 105 101 58 31 205 32 263 2z m1550 -308 l0
-330 -42 -3 c-49 -4 -68 9 -88 56 -7 17 -19 32 -26 32 -7 0 -43 -20 -80 -45
-81 -54 -114 -57 -178 -17 -58 38 -73 57 -95 122 -15 42 -19 83 -18 175 0 205
53 313 164 335 13 3 101 5 194 5 l169 0 0 -330z m-4065 -251 c31 -21 128 -21
152 1 23 20 47 10 67 -29 9 -17 33 -52 55 -78 l39 -47 -30 -15 c-17 -9 -37
-16 -45 -16 -9 0 -45 -16 -80 -35 -36 -19 -72 -35 -81 -35 -9 0 -44 15 -78 33
-34 19 -79 37 -99 41 -45 8 -48 25 -13 72 14 18 34 54 45 79 21 49 33 54 68
29z m570 -94 c20 -11 44 -24 52 -29 8 -5 27 -14 43 -20 32 -12 38 -51 8 -51
-10 0 -24 -7 -31 -15 -7 -8 -17 -15 -22 -15 -5 0 -21 -9 -37 -21 -26 -19 -30
-20 -62 -5 -19 9 -41 20 -49 26 -8 5 -33 16 -54 25 -38 15 -39 16 -21 35 10
11 24 20 31 20 6 0 31 16 54 35 23 19 44 35 46 35 3 0 21 -9 42 -20z m625 -18
c36 -38 35 -59 -5 -67 -18 -4 -66 -25 -106 -47 l-74 -39 -39 25 c-21 14 -43
26 -49 26 -5 0 -10 4 -10 9 0 5 -19 15 -42 23 -50 16 -60 35 -21 43 15 4 35
10 45 15 10 6 31 3 57 -7 35 -14 47 -14 83 -3 24 6 53 21 67 31 33 27 63 24
94 -9z m-1263 -152 c20 -5 51 -25 69 -44 33 -34 33 -36 30 -108 -4 -67 -8 -80
-44 -133 -22 -32 -70 -88 -107 -124 -99 -96 -93 -109 44 -90 86 12 92 11 105
-7 9 -12 13 -38 11 -69 l-3 -50 -160 3 c-170 4 -219 12 -235 42 -24 45 -12 69
79 163 110 113 191 220 191 252 0 57 -90 78 -129 29 -11 -14 -21 -30 -24 -37
-2 -7 -27 -11 -63 -12 -57 0 -59 1 -62 27 -6 53 53 135 113 156 39 13 140 15
185 2z m477 -5 c87 -36 118 -134 111 -349 -6 -184 -41 -241 -165 -266 -43 -9
-63 -8 -113 6 -72 20 -112 61 -130 132 -14 58 -14 254 1 341 13 76 35 109 87
133 47 22 158 23 209 3z m472 -1 c86 -34 117 -144 69 -242 -13 -25 -65 -88
-115 -139 -51 -51 -93 -97 -93 -102 0 -18 35 -21 121 -9 108 14 113 11 114
-70 l0 -57 -170 4 c-194 4 -228 13 -233 68 -4 35 33 87 135 193 136 143 167
217 101 244 -41 18 -78 5 -101 -34 -34 -56 -127 -49 -127 10 0 61 38 114 95
135 54 19 156 19 204 -1z m461 -6 c64 -34 82 -64 83 -140 1 -49 -5 -73 -23
-106 -20 -36 -22 -46 -12 -60 7 -9 24 -41 38 -71 25 -53 25 -54 7 -98 -27 -66
-73 -109 -139 -128 -59 -17 -79 -15 -151 12 -49 18 -82 62 -108 141 -16 49
-35 65 -50 42 -8 -13 -45 6 -45 23 0 7 8 20 18 28 9 9 29 37 44 62 26 45 30
47 72 47 41 0 44 -2 50 -31 8 -42 -2 -79 -23 -79 -22 0 -58 -26 -49 -35 3 -4
25 -9 48 -12 33 -5 48 -14 72 -44 25 -31 38 -39 65 -39 34 0 83 36 83 61 0 29
-37 70 -72 80 -43 11 -55 29 -54 79 1 34 2 35 46 38 51 3 70 21 70 64 0 41
-32 68 -80 68 -36 0 -43 -4 -61 -35 -32 -54 -113 -63 -121 -13 -10 63 27 127
87 154 50 22 154 18 205 -8z m-680 -268 c0 -12 -28 -25 -36 -17 -9 9 6 27 22
27 8 0 14 -5 14 -10z m-67 -393 c43 -28 58 -46 40 -48 -81 -6 -193 -8 -210 -4
-41 10 -25 34 40 64 34 16 67 26 72 23 6 -3 31 -19 58 -35z m577 -34 c0 -22
-136 -32 -184 -13 -35 13 -31 37 12 66 l32 22 70 -31 c38 -18 70 -37 70 -44z
m-1001 38 c30 -15 56 -32 58 -38 6 -16 -126 -26 -164 -12 -39 13 -41 24 -11
56 28 30 51 29 117 -6z"/>
<path d="M4609 3237 c-43 -29 -58 -71 -58 -167 -1 -89 12 -118 61 -145 l36
-19 51 24 c29 13 57 30 63 38 8 9 13 63 14 147 2 129 1 133 -20 139 -49 13
-113 6 -147 -17z"/>
<path d="M6194 3250 c-56 -22 -81 -96 -69 -201 9 -76 52 -129 106 -129 108 0
139 39 139 173 0 101 -19 140 -77 156 -45 13 -70 13 -99 1z m76 -129 c0 -4 -6
-16 -14 -27 -14 -18 -15 -18 -21 -1 -10 24 1 48 20 41 8 -3 15 -9 15 -13z"/>
<path d="M7613 3244 c-43 -22 -63 -75 -63 -170 0 -98 19 -140 69 -155 32 -9
42 -7 93 21 l56 30 4 133 c4 109 2 134 -11 145 -21 17 -110 15 -148 -4z"/>
<path d="M4104 2435 c-25 -25 -25 -27 -22 -174 3 -130 5 -152 22 -170 23 -26
91 -29 124 -5 21 15 22 21 22 179 0 158 -1 164 -22 179 -35 25 -94 20 -124 -9z"/>
<path d="M793 3639 c-18 -12 -33 -25 -33 -29 0 -5 30 -11 68 -14 104 -10 114
-15 129 -65 7 -24 17 -49 24 -57 6 -7 23 -50 39 -95 15 -45 36 -91 45 -102 17
-20 18 -20 32 -1 7 10 18 37 24 59 10 39 29 86 54 135 7 14 16 39 19 56 11 48
32 61 120 68 44 3 82 9 85 12 9 8 -23 29 -66 43 -65 21 -114 2 -190 -76 l-64
-66 -52 50 c-106 104 -167 125 -234 82z"/>
<path d="M977 2523 c-14 -13 -6 -23 19 -23 22 0 25 2 14 15 -14 16 -23 19 -33
8z"/>
<path d="M1636 2505 c-20 -14 -43 -25 -50 -25 -7 0 -15 -3 -19 -6 -9 -9 12
-49 34 -62 18 -11 19 -9 19 27 0 53 17 64 84 56 64 -8 72 -1 21 21 -45 18 -46
18 -89 -11z"/>
<path d="M7750 2515 c-11 -13 -8 -15 20 -15 28 0 31 2 20 15 -7 8 -16 15 -20
15 -4 0 -13 -7 -20 -15z"/>
<path d="M7011 2508 c-49 -14 -31 -21 34 -13 31 4 55 8 53 10 -12 9 -59 11
-87 3z"/>
<path d="M893 2469 c-49 -34 -56 -59 -18 -59 14 0 33 -8 43 -18 18 -18 19 -17
18 45 -1 34 -1 63 -1 63 0 -1 -19 -14 -42 -31z"/>
<path d="M7140 2450 c0 -29 4 -40 15 -40 22 0 30 27 17 56 -17 36 -32 29 -32
-16z"/>
<path d="M7830 2439 c0 -38 2 -41 23 -35 12 3 30 6 40 6 26 0 20 24 -13 48
-41 31 -50 28 -50 -19z"/>
<path d="M1742 2399 c-23 -15 -44 -20 -72 -17 -44 4 -47 2 -25 -22 12 -14 45
-15 276 -13 144 2 266 6 270 9 17 10 9 21 -18 23 -16 1 -100 4 -187 7 -115 4
-165 9 -180 20 -26 18 -25 18 -64 -7z"/>
<path d="M7675 2410 c-4 -6 -3 -16 3 -22 6 -6 12 -6 17 2 4 6 3 16 -3 22 -6 6
-12 6 -17 -2z"/>
<path d="M6936 2398 c-11 -6 -86 -11 -187 -12 -158 -2 -192 -6 -175 -23 3 -4
97 -8 209 -10 111 -2 226 -6 254 -10 36 -4 58 -1 68 7 25 20 17 30 -23 30 -21
0 -47 7 -58 15 -23 17 -62 19 -88 3z"/>
<path d="M1340 2382 c0 -13 23 -32 39 -32 11 0 10 4 -4 20 -19 21 -35 26 -35
12z"/>
<path d="M7385 2370 c-10 -11 -15 -20 -11 -20 14 0 46 21 46 30 0 16 -16 11
-35 -10z"/>
<path d="M1490 2371 c0 -5 7 -12 16 -15 9 -3 14 -13 11 -20 -7 -17 33 -46 62
-46 28 0 18 18 -31 58 -41 32 -58 39 -58 23z"/>
<path d="M7785 2371 c-6 -11 9 -23 19 -14 9 9 7 23 -3 23 -6 0 -12 -4 -16 -9z"/>
<path d="M7950 2344 c0 -21 4 -33 10 -29 6 3 10 19 10 36 0 16 -4 29 -10 29
-5 0 -10 -16 -10 -36z"/>
<path d="M7191 2321 c-17 -23 -19 -31 -8 -31 22 0 52 39 40 51 -7 7 -17 1 -32
-20z"/>
<path d="M942 2318 c-7 -7 -12 -19 -12 -27 0 -11 4 -10 20 4 21 19 26 35 12
35 -4 0 -13 -5 -20 -12z"/>
<path d="M1409 2316 c7 -8 21 -12 31 -9 27 7 15 23 -17 23 -21 0 -23 -3 -14
-14z"/>
<path d="M7772 2318 c3 -7 13 -15 22 -16 12 -3 17 1 14 10 -3 7 -13 15 -22 16
-12 3 -17 -1 -14 -10z"/>
<path d="M1634 2208 c-3 -4 1 -10 8 -13 25 -10 423 0 421 10 -4 12 -422 15
-429 3z"/>
<path d="M7010 2210 c0 -5 23 -10 50 -10 28 0 50 5 50 10 0 6 -22 10 -50 10
-27 0 -50 -4 -50 -10z"/>
<path d="M1407 2193 c-4 -3 -7 -14 -7 -24 0 -16 3 -17 25 -7 29 13 33 38 7 38
-10 0 -22 -3 -25 -7z"/>
<path d="M1037 2143 c-4 -3 7 -12 25 -18 18 -7 41 -16 51 -20 10 -4 17 -3 17
4 0 6 -6 11 -14 11 -7 0 -19 7 -26 15 -13 16 -42 20 -53 8z"/>
<path d="M7637 2124 c-8 -8 1 -24 14 -24 5 0 9 7 9 15 0 15 -12 20 -23 9z"/>
<path d="M7331 1990 c-19 -26 -20 -31 -6 -36 8 -3 33 1 55 10 22 8 46 13 54
10 8 -3 29 2 45 12 41 24 24 34 -60 34 -61 0 -67 -2 -88 -30z"/>
<path d="M7590 2012 c0 -4 16 -12 35 -18 31 -10 35 -9 35 7 0 15 -8 19 -35 19
-19 0 -35 -3 -35 -8z"/>
<path d="M1270 1991 c0 -17 7 -20 56 -20 38 0 62 -5 74 -16 12 -11 20 -13 25
-6 9 15 -3 31 -23 31 -13 0 -13 2 4 15 17 13 12 14 -58 15 -70 0 -78 -2 -78
-19z"/>
<path d="M1025 1960 c-4 -6 5 -10 19 -10 14 0 26 5 26 10 0 6 -9 10 -19 10
-11 0 -23 -4 -26 -10z"/>
<path d="M7508 1944 c-5 -4 -8 -17 -8 -29 0 -33 -37 -75 -66 -75 -14 0 -39 7
-56 16 -20 10 -42 14 -62 10 -17 -4 -151 -6 -297 -6 -265 2 -388 -5 -372 -21
4 -4 200 -9 435 -10 387 -2 430 -1 446 14 10 10 24 17 30 17 7 0 12 5 12 10 0
6 -8 10 -18 10 -13 0 -21 11 -28 36 -5 20 -12 33 -16 28z"/>
<path d="M1216 1895 c-9 -21 -15 -44 -12 -50 7 -20 128 -36 186 -25 29 6 158
10 286 10 149 0 234 4 234 10 0 6 -83 10 -227 10 -183 1 -232 3 -247 15 -17
13 -23 12 -51 -5 -53 -33 -125 -19 -125 24 0 7 -6 21 -14 31 -13 18 -15 17
-30 -20z"/>
<path d="M750 1911 c-21 -14 -13 -18 57 -24 50 -4 61 -2 56 9 -3 8 -13 14 -23
14 -10 0 -30 2 -46 5 -16 3 -36 1 -44 -4z"/>
<path d="M7907 1905 c-45 -15 -53 -22 -42 -32 4 -5 10 -3 12 4 2 7 31 15 63
19 33 4 57 10 54 15 -7 13 -43 10 -87 -6z"/>
<path d="M8040 1836 c0 -20 5 -36 10 -36 6 0 10 13 10 29 0 17 -4 33 -10 36
-6 4 -10 -8 -10 -29z"/>
<path d="M1970 1840 c0 -5 21 -10 46 -10 27 0 43 4 39 10 -3 6 -24 10 -46 10
-21 0 -39 -4 -39 -10z"/>
<path d="M720 1773 c2 -39 84 -59 110 -28 7 8 25 15 41 15 16 0 29 5 29 10 0
13 -47 13 -55 1 -11 -19 -63 -22 -94 -6 -17 8 -31 12 -31 8z"/>
<path d="M7850 1770 c0 -5 11 -10 25 -10 14 0 41 -9 61 -19 36 -20 68 -18 61
3 -8 24 -147 49 -147 26z"/>
<path d="M2896 1744 c-13 -34 -4 -69 44 -164 64 -126 121 -185 187 -194 61 -8
2501 -8 2544 1 51 10 117 85 171 194 52 106 61 138 47 159 -8 13 -12 12 -27
-8 -9 -13 -35 -46 -57 -74 -48 -61 -49 -63 -65 -113 -29 -89 -75 -117 -152
-90 -30 10 -47 11 -61 4 -10 -6 -40 -8 -66 -5 -25 4 -57 6 -71 5 -33 -2 -429
-2 -455 -1 -11 1 -41 -1 -68 -4 -33 -4 -54 -2 -70 9 -18 11 -25 12 -34 2 -14
-15 -420 -18 -429 -4 -3 5 -11 6 -17 2 -7 -4 -108 -9 -226 -9 -193 -2 -215 0
-231 16 -17 17 -18 17 -23 -2 -5 -19 -11 -20 -69 -14 -35 3 -69 6 -75 5 -7 -1
-40 -1 -73 -1 -33 0 -67 0 -75 0 -8 0 -41 0 -72 -1 -32 0 -67 0 -78 0 -82 2
-196 -4 -228 -11 -25 -5 -47 -5 -62 2 -29 13 -78 106 -70 131 3 11 0 21 -9 24
-16 6 -106 121 -106 136 0 17 -18 21 -24 5z"/>
<path d="M7560 1738 c-16 -7 -178 -12 -435 -14 -419 -4 -520 -8 -545 -24 -29
-18 43 -20 515 -18 442 3 480 4 477 20 -1 9 8 24 20 32 26 18 7 21 -32 4z"/>
<path d="M1245 1710 c-4 -7 135 -10 410 -10 275 0 414 3 410 10 -8 14 -812 14
-820 0z"/>
<path d="M3626 1639 c-6 -35 -3 -45 18 -65 l24 -25 24 23 24 23 -42 42 -42 42
-6 -40z"/>
<path d="M3793 1641 l-22 -44 22 -18 c23 -19 57 -25 57 -11 0 5 10 14 23 19
l22 11 -28 13 c-16 7 -34 26 -41 43 l-12 30 -21 -43z"/>
<path d="M3953 1633 l-19 -38 33 -22 c25 -17 34 -19 40 -9 5 7 15 17 24 22 13
8 9 15 -22 47 l-38 38 -18 -38z"/>
<path d="M4125 1638 c-9 -16 -20 -28 -26 -28 -18 0 -8 -15 20 -32 28 -15 32
-15 63 1 l33 16 -37 35 -36 35 -17 -27z"/>
<path d="M4463 1651 c-3 -11 -16 -27 -30 -36 l-24 -16 33 -23 c32 -22 34 -22
51 -4 10 10 25 18 35 18 13 1 10 6 -10 21 -16 11 -28 27 -28 34 0 23 -21 28
-27 6z"/>
<path d="M4795 1649 c-4 -11 -23 -27 -42 -35 l-35 -15 38 -20 c46 -23 43 -23
72 1 l22 18 -21 36 c-11 20 -22 36 -24 36 -2 0 -7 -9 -10 -21z"/>
<path d="M5100 1632 l-35 -37 21 -21 c19 -18 24 -19 40 -7 11 8 25 18 32 22
11 6 11 14 -2 44 -8 21 -16 37 -18 36 -2 0 -19 -17 -38 -37z"/>
<path d="M5436 1634 c-26 -31 -27 -38 -17 -61 l12 -26 31 30 c25 26 29 35 23
62 -4 17 -10 31 -13 30 -4 0 -20 -16 -36 -35z"/>
<path d="M5601 1633 c-38 -35 -40 -40 -28 -61 l13 -23 32 29 c23 21 32 39 32
61 0 17 -2 31 -4 31 -2 0 -22 -17 -45 -37z"/>
<path d="M7976 1662 c-3 -5 -35 -13 -72 -17 -72 -7 -75 -12 -17 -26 28 -7 52
-5 95 9 32 9 56 22 55 27 -5 13 -54 19 -61 7z"/>
<path d="M715 1649 c-9 -13 -8 -14 45 -28 63 -17 72 -18 77 -5 4 12 -65 44
-97 44 -10 0 -22 -5 -25 -11z"/>
<path d="M3136 1628 c-4 -20 -2 -34 4 -36 6 -2 20 -14 31 -26 l20 -21 19 25
c18 24 18 25 -7 42 -15 9 -30 24 -35 32 -14 25 -25 19 -32 -16z"/>
<path d="M3300 1641 c0 -11 -2 -25 -5 -33 -3 -8 7 -21 25 -32 17 -10 35 -28
40 -39 8 -21 9 -21 10 3 0 14 4 31 9 38 5 8 -3 25 -24 47 -35 39 -55 45 -55
16z"/>
<path d="M3465 1628 c-9 -31 -8 -35 24 -56 18 -13 34 -22 35 -20 0 2 6 12 12
24 10 17 7 25 -22 52 -18 18 -35 32 -37 32 -1 0 -7 -15 -12 -32z"/>
<path d="M4281 1629 l-22 -30 23 -19 c26 -22 44 -25 53 -9 4 6 15 13 25 17 16
6 14 11 -19 39 l-38 32 -22 -30z"/>
<path d="M4947 1637 c-12 -13 -31 -27 -42 -31 -20 -8 -20 -8 2 -16 12 -5 26
-18 32 -29 11 -19 12 -18 41 10 29 29 29 31 15 60 -19 35 -20 35 -48 6z"/>
<path d="M5266 1625 c-24 -31 -26 -37 -13 -55 14 -20 14 -20 41 1 19 15 26 30
26 55 0 45 -20 44 -54 -1z"/>
<path d="M4598 1620 c-26 -27 -27 -29 -9 -35 11 -3 22 -13 25 -21 5 -12 11
-11 38 8 18 13 35 24 37 26 7 4 -42 52 -53 52 -6 -1 -23 -14 -38 -30z"/>
<path d="M7698 1638 c13 -12 122 -21 122 -10 0 6 -29 12 -65 14 -35 1 -61 0
-57 -4z"/>
<path d="M8072 1588 c1 -18 0 -40 -3 -48 -7 -25 57 -26 71 -1 8 16 21 21 50
21 22 0 40 4 40 9 0 15 -39 24 -74 17 -25 -5 -37 -2 -51 14 -26 28 -35 25 -33
-12z"/>
<path d="M636 1595 c-11 -8 -39 -15 -62 -15 -24 0 -46 -4 -49 -10 -4 -6 7 -10
25 -10 17 0 44 -9 59 -21 43 -32 65 -22 69 29 3 46 -8 53 -42 27z"/>
<path d="M6414 1572 c-10 -2 -26 -6 -34 -9 -33 -14 64 -19 305 -16 690 8 879
6 940 -9 73 -18 345 -25 345 -9 0 6 -8 11 -17 12 -10 0 -84 1 -164 2 -101 1
-151 6 -161 15 -12 10 -146 13 -605 15 -324 1 -598 1 -609 -1z"/>
<path d="M1110 1548 l-35 -20 45 8 c41 7 665 12 750 7 19 -2 60 -2 90 0 30 2
133 4 228 5 106 1 172 6 172 12 0 7 -208 10 -607 9 -585 -1 -609 -2 -643 -21z"/>
<path d="M477 1523 c-11 -10 -8 -73 3 -73 6 0 10 18 10 40 0 41 -2 45 -13 33z"/>
<path d="M727 1444 c-4 -4 -7 -11 -7 -16 0 -13 50 -6 53 7 2 12 -36 19 -46 9z"/>
<path d="M928 1443 c-24 -4 -28 -9 -28 -38 0 -41 14 -52 32 -27 19 27 57 33
94 16 40 -19 109 -15 109 6 0 9 -9 15 -25 15 -14 0 -36 8 -50 18 -23 16 -67
20 -132 10z"/>
<path d="M1233 1434 c-29 -12 -32 -17 -26 -46 6 -28 4 -31 -15 -26 -26 7 -27
0 -4 -30 25 -32 48 -20 58 31 11 52 43 67 103 47 38 -12 111 -7 111 8 0 9
-119 32 -162 31 -18 0 -48 -7 -65 -15z"/>
<path d="M7348 1438 c-33 -11 -35 -23 -9 -38 26 -13 23 -14 66 20 l38 30 -34
-1 c-19 0 -46 -5 -61 -11z"/>
<path d="M7683 1443 c-13 -2 -23 -11 -23 -19 0 -8 -7 -14 -16 -14 -23 0 -11
-24 14 -28 12 -2 32 4 44 12 23 16 94 21 114 8 6 -4 16 -16 22 -27 10 -18 11
-17 12 12 0 48 -22 63 -88 62 -31 -1 -67 -4 -79 -6z"/>
<path d="M620 1429 c-14 -4 -42 -7 -62 -8 -21 -1 -38 -5 -38 -11 0 -15 102
-11 123 4 23 17 10 25 -23 15z"/>
<path d="M1815 1420 c3 -5 14 -10 24 -10 10 0 24 -7 31 -15 7 -8 16 -15 21
-15 15 0 10 22 -8 36 -21 16 -77 19 -68 4z"/>
<path d="M7504 1393 c3 -21 6 -46 6 -55 0 -13 8 -18 30 -18 23 0 35 7 50 32
21 35 19 48 -4 29 -19 -16 -39 -4 -31 17 6 17 -11 32 -39 32 -16 0 -18 -5 -12
-37z"/>
<path d="M8145 1410 c3 -5 21 -10 40 -10 19 0 37 5 40 10 4 6 -12 10 -40 10
-28 0 -44 -4 -40 -10z"/>
<path d="M7677 1303 c-17 -16 -5 -33 23 -33 17 0 30 -5 30 -11 0 -6 14 -9 33
-7 44 4 40 20 -8 30 -22 5 -44 13 -49 18 -12 12 -20 13 -29 3z"/>
<path d="M6897 1293 c-10 -9 -9 -23 2 -23 5 0 11 7 15 15 5 15 -5 20 -17 8z"/>
<path d="M978 1273 c-16 -2 -28 -9 -28 -14 0 -15 73 -6 78 9 4 12 0 12 -50 5z"/>
<path d="M6770 1220 c0 -19 31 -23 48 -6 15 15 14 16 -16 16 -18 0 -32 -5 -32
-10z"/>
</g>
</svg>
