<?xml version="1.0" standalone="no"?>
<!DOCTYPE svg PUBLIC "-//W3C//DTD SVG 20010904//EN"
 "http://www.w3.org/TR/2001/REC-SVG-20010904/DTD/svg10.dtd">
<svg version="1.0" xmlns="http://www.w3.org/2000/svg"
 width="144.000000pt" height="162.000000pt" viewBox="0 0 144.000000 162.000000"
 preserveAspectRatio="xMidYMid meet">
<metadata>
Created by potrace 1.10, written by Peter Selinger 2001-2011
</metadata>
<g transform="translate(0.000000,162.000000) scale(0.100000,-0.100000)"
fill="#986dff" stroke="none">
<path d="M355 1430 c-170 -98 -317 -189 -327 -202 -10 -13 -18 -32 -18 -43 0
-16 3 -14 18 10 11 17 25 35 33 42 17 14 327 193 334 193 3 0 24 12 48 27 23
15 92 55 152 90 61 35 101 63 90 63 -11 0 -159 -81 -330 -180z"/>
<path d="M875 1529 c77 -45 158 -91 180 -103 187 -103 355 -205 355 -215 0 -7
-235 -144 -257 -149 -7 -2 -13 1 -13 6 0 19 -74 103 -123 140 -56 41 -110 66
-195 88 -104 27 -209 12 -332 -48 -153 -74 -270 -264 -270 -438 0 -58 36 -199
56 -221 9 -10 13 -22 10 -27 -6 -10 -249 -152 -260 -152 -3 0 -7 10 -7 23 -1
17 -2 18 -6 4 -3 -10 2 -28 10 -41 17 -25 609 -372 660 -387 46 -13 18 10 -68
56 -38 21 -82 46 -97 56 -14 11 -30 19 -35 19 -5 0 -32 16 -59 35 -27 19 -55
35 -61 35 -7 0 -13 5 -13 10 0 6 -5 10 -11 10 -7 0 -52 24 -101 53 -49 28
-107 62 -129 75 -43 26 -54 62 -19 62 11 0 20 3 20 8 0 8 10 14 80 49 25 13
54 30 64 38 30 23 42 19 73 -25 15 -22 32 -40 37 -40 5 0 21 -12 35 -28 14
-15 43 -35 64 -45 20 -9 37 -22 37 -27 0 -6 5 -8 10 -5 6 4 17 2 25 -5 24 -20
165 -40 240 -33 93 7 217 67 293 140 30 29 51 53 47 53 -4 0 4 9 18 20 25 20
28 20 57 5 41 -21 38 -12 -5 14 -19 11 -35 26 -35 34 0 21 -204 139 -230 131
-9 -2 -53 18 -99 45 l-83 48 58 35 c33 20 100 57 149 83 50 26 113 63 141 81
29 19 63 38 75 44 13 6 44 24 69 40 25 16 56 34 70 40 13 6 27 15 30 19 3 4
21 14 40 23 31 15 37 15 51 2 15 -13 16 -12 11 13 -3 15 -11 38 -19 50 -17 25
-632 383 -659 383 -10 0 44 -36 121 -81z m-39 -253 c89 -24 171 -74 240 -149
36 -39 61 -74 57 -78 -7 -7 -204 -122 -488 -286 -60 -34 -112 -63 -115 -63
-12 0 -29 67 -29 114 1 192 226 285 372 154 51 -45 63 -40 17 7 -112 115 -307
86 -381 -57 -50 -97 -33 -195 45 -273 100 -100 228 -101 329 -4 l49 47 104
-60 104 -60 -22 -31 c-93 -132 -240 -207 -404 -207 -411 0 -627 500 -346 803
121 130 306 186 468 143z m-62 -511 c20 -14 39 -25 42 -25 2 0 23 -12 45 -26
l41 -25 -34 -34 c-36 -36 -102 -65 -148 -65 -43 0 -106 26 -139 58 -29 27 -30
30 -13 44 20 17 154 98 163 98 3 0 23 -11 43 -25z"/>
<path d="M1075 887 c-4 -12 -16 -27 -28 -32 -17 -8 -22 -19 -22 -45 0 -26 5
-37 22 -45 12 -5 24 -20 28 -32 4 -19 12 -23 45 -23 33 0 41 4 45 23 6 24 51
51 61 36 3 -5 13 -9 22 -9 10 0 22 -10 27 -22 7 -17 20 -24 47 -26 32 -3 38 0
43 20 3 13 16 28 28 33 17 8 22 19 22 45 0 26 -5 37 -22 45 -12 5 -24 20 -28
32 -4 19 -12 23 -45 23 -34 0 -41 -4 -46 -25 -4 -15 -13 -25 -24 -25 -11 0
-21 -4 -24 -9 -10 -15 -55 12 -61 37 -4 18 -12 22 -45 22 -33 0 -41 -4 -45
-23z m75 -22 c0 -20 5 -25 25 -25 21 0 25 -5 25 -30 0 -25 -4 -30 -25 -30 -20
0 -25 -5 -25 -25 0 -21 -5 -25 -30 -25 -25 0 -30 4 -30 25 0 20 -5 25 -25 25
-21 0 -25 5 -25 30 0 25 4 30 25 30 20 0 25 5 25 25 0 21 5 25 30 25 25 0 30
-4 30 -25z m200 0 c0 -20 5 -25 25 -25 21 0 25 -5 25 -30 0 -25 -4 -30 -25
-30 -20 0 -25 -5 -25 -25 0 -21 -5 -25 -30 -25 -25 0 -30 4 -30 25 0 20 -5 25
-25 25 -21 0 -25 5 -25 30 0 25 4 30 25 30 20 0 25 5 25 25 0 21 5 25 30 25
25 0 30 -4 30 -25z"/>
<path d="M1230 506 c0 -3 9 -10 20 -16 11 -6 20 -8 20 -6 0 3 -9 10 -20 16
-11 6 -20 8 -20 6z"/>
<path d="M1280 475 c0 -2 18 -14 40 -25 22 -11 40 -18 40 -15 0 2 -18 14 -40
25 -22 11 -40 18 -40 15z"/>
<path d="M1422 458 c-7 -7 -12 -20 -12 -30 0 -21 -11 -23 -29 -5 -11 10 -11 8
-2 -10 11 -21 8 -27 -11 -24 -5 0 -8 -3 -8 -9 0 -6 -7 -10 -15 -10 -8 0 -15
-3 -15 -8 0 -4 -9 -12 -19 -17 -11 -6 -60 -34 -109 -62 -49 -29 -94 -53 -101
-53 -6 0 -11 -4 -11 -10 0 -5 -6 -10 -14 -10 -7 0 -24 -9 -38 -19 -13 -11 -44
-31 -69 -44 -100 -55 -205 -117 -224 -131 -19 -14 -18 -15 12 -6 49 13 640
358 656 383 13 21 31 77 24 77 -2 0 -8 -5 -15 -12z"/>
</g>
</svg>
