<?xml version="1.0" standalone="no"?>
<!DOCTYPE svg PUBLIC "-//W3C//DTD SVG 20010904//EN"
 "http://www.w3.org/TR/2001/REC-SVG-20010904/DTD/svg10.dtd">
<svg version="1.0" xmlns="http://www.w3.org/2000/svg"
 width="241.000000pt" height="122.000000pt" viewBox="0 0 241.000000 122.000000"
 preserveAspectRatio="xMidYMid meet">
<metadata>
Created by potrace 1.10, written by Peter Selinger 2001-2011
</metadata>
<g transform="translate(0.000000,122.000000) scale(0.050000,-0.050000)"
fill="#986dff" stroke="none">
<path d="M911 2409 c-193 -36 -409 -137 -538 -251 l-96 -84 145 -146 144 -145
72 58 c391 312 984 214 1210 -201 59 -109 116 -290 97 -309 -7 -6 -441 -11
-966 -11 l-955 0 -13 -115 c-146 -1337 1865 -1667 2312 -380 60 172 95 176
142 16 325 -1104 2052 -1107 2286 -3 29 135 39 394 17 450 -11 29 -115 32
-973 32 l-960 0 11 71 c93 569 882 849 1298 460 75 -71 83 -68 240 84 l140
135 -96 84 c-678 599 -1898 165 -2001 -711 -17 -139 -31 -130 -71 44 -147 647
-775 1048 -1445 922z m1009 -1460 c0 -31 -108 -217 -161 -277 -348 -396 -1059
-330 -1271 118 -88 185 -147 170 692 170 407 0 740 -5 740 -11z m2440 -16 c0
-58 -126 -274 -195 -335 -371 -325 -1013 -206 -1243 232 -73 138 -117 130 698
130 605 0 740 -5 740 -27z"/>
</g>
</svg>
