<?xml version="1.0" standalone="no"?>
<!DOCTYPE svg PUBLIC "-//W3C//DTD SVG 20010904//EN"
 "http://www.w3.org/TR/2001/REC-SVG-20010904/DTD/svg10.dtd">
<svg version="1.0" xmlns="http://www.w3.org/2000/svg"
 width="127.000000pt" height="127.000000pt" viewBox="0 0 127.000000 127.000000"
 preserveAspectRatio="xMidYMid meet">
<metadata>
Created by potrace 1.10, written by Peter Selinger 2001-2011
</metadata>
<g transform="translate(0.000000,127.000000) scale(0.100000,-0.100000)"
fill="#986dff" stroke="none">
<path d="M469 1033 c-145 -147 -243 -253 -254 -278 -11 -22 -21 -71 -23 -108
-7 -109 11 -141 156 -289 72 -74 135 -129 150 -133 15 -4 30 -12 34 -18 12
-19 167 -14 213 8 22 10 42 19 45 19 8 2 55 36 48 36 -3 0 19 24 49 53 48 46
56 59 60 101 5 42 3 51 -20 72 -25 23 -91 34 -99 17 -2 -5 -38 -41 -82 -80
-65 -61 -84 -73 -113 -73 -23 0 -32 4 -27 12 4 7 3 8 -5 4 -8 -5 -52 32 -121
101 -107 106 -110 110 -110 153 0 44 4 48 102 148 55 56 105 102 110 102 5 0
6 5 3 10 -3 6 5 11 19 11 68 4 88 1 81 -11 -3 -5 -2 -10 3 -10 5 0 23 -14 41
-30 17 -17 31 -27 31 -23 0 5 9 -7 20 -24 11 -18 31 -35 45 -39 14 -3 22 -10
19 -15 -3 -5 9 -9 26 -9 18 0 29 4 25 10 -3 5 3 10 15 10 37 0 52 73 25 126
-16 32 -84 100 -97 97 -4 -2 -8 4 -8 12 0 8 -4 15 -9 15 -5 0 -23 11 -39 25
l-30 25 44 46 c38 39 44 51 44 88 0 57 -22 76 -86 76 l-50 0 -235 -237z m331
207 c48 -48 43 -55 -327 -422 -174 -172 -175 -193 -26 -349 108 -112 133 -129
193 -129 38 0 48 7 119 74 42 40 87 77 99 81 36 11 72 -18 72 -58 0 -27 -12
-45 -77 -109 -99 -96 -128 -112 -218 -112 -59 -1 -77 3 -115 26 -63 37 -266
245 -286 294 -25 60 -22 150 9 209 34 67 483 515 515 515 12 0 31 -9 42 -20z
m-40 -216 c14 -9 58 -49 98 -88 60 -59 72 -76 72 -103 0 -34 -29 -63 -63 -63
-11 0 -55 34 -98 76 -69 67 -83 77 -123 81 l-44 5 41 32 c23 17 46 42 52 54
12 26 32 28 65 6z"/>
<path d="M571 318 c-1 -16 -11 -35 -27 -47 -20 -16 -23 -21 -10 -21 9 0 26 9
38 19 17 16 19 24 10 48 l-10 28 -1 -27z"/>
<path d="M585 723 c-31 -8 -63 -42 -70 -75 -7 -30 12 -70 44 -95 20 -15 484
-18 512 -2 28 15 51 66 44 98 -3 16 -17 39 -31 52 -25 24 -28 24 -252 26 -125
1 -236 -1 -247 -4z m485 -41 c27 -22 29 -65 5 -92 -17 -19 -32 -20 -254 -20
-198 0 -240 3 -259 16 -28 19 -29 67 -2 94 19 19 33 20 254 20 211 0 236 -2
256 -18z"/>
</g>
</svg>
